<html>
<head>
<meta charset="UTF-8">
<meta name="viewport" content="width=device-width, initial-scale=1.0"/>

<style>
.comment
{
    padding-left: 20px;
    margin-top: 4px;
    margin-right: 4px;
    margin-bottom: 4px;
    border: 2px #000 solid;
}
.submission
{
    border: 4px #00f solid;
    padding-left: 20px;
}
.hidden
{
    display: none;
}
</style>
</head>
<body><div class="submission" id="t3_6kh5ka">
    <p class="userinfo">
        <a href="https://www.reddit.com/u/V2atX">V2atX</a>
        <span class="score"> | 41 points</span>
        <span class="timestamp"> | Jun 30 2017 16:50:44</span>
    </p>
    <strong>[TV] Marvel's Agent Carter S01 & S02 [1080p] BluRay FLAC [x264] [20.76GB]</strong>
    <p><p><a href="http://www.imdb.com/title/tt3475734/">Marvel's Agent Carter</a></p>
<p>Video: AVC H.264 @ 1969 - 3916 kb/s (2750 kb/s average) (CRF20, Film Preset, Ultralight Denoise)<br>
Audio: FLAC 5.1 @ 1027 - 1301 kb/s (1145 kb/s average) (DTS-HD MA source was 24-bit, I reduced it to 16-bit for a better filesize)<br>
Subs: UTF-8, non HI</p>
<p>Links protected by captcha: <br>
http://links.snahp.it/975PeggyS01<br>
http://links.snahp.it/685PeggyS02</p>
<p>Please don't leave a comment if this is down, but pm me instead :)</p>
<p>Mirror on 1fichier included! Register a free account for faster downloading.<br>
I suggest using <a href="https://board.jdownloader.org/showthread.php?t=54725">JDownloader 2 for easier downloading.</a> (Copy + paste the link inside, as the redirect is broken.)</p>
<p>Complete MediaInfo of a relatively average sized episode:</p>
<pre><code>General
Unique ID                                : 215268284315008213319522248368579780270 (0xA1F329DA14EFD03CBFBAACC51E759EAE)
Complete name                            : Marvel's Agent Carter - S02E03 - Better Angels.mkv
Format                                   : Matroska
Format version                           : Version 4 / Version 2
File size                                : 1.20 GiB
Duration                                 : 43 min 7 s
Overall bit rate mode                    : Variable
Overall bit rate                         : 3 979 kb/s
Encoded date                             : UTC 2017-06-28 15:51:21
Writing application                      : mkvmerge v10.0.0 ('To Drown In You') 64bit
Writing library                          : libebml v1.3.4 + libmatroska v1.4.5

Video
ID                                       : 1
Format                                   : AVC
Format/Info                              : Advanced Video Codec
Format profile                           : High@L4.1
Format settings, CABAC                   : Yes
Format settings, RefFrames               : 4 frames
Codec ID                                 : V_MPEG4/ISO/AVC
Duration                                 : 43 min 4 s
Bit rate                                 : 2 935 kb/s
Width                                    : 1 920 pixels
Height                                   : 1 080 pixels
Display aspect ratio                     : 16:9
Frame rate mode                          : Constant
Frame rate                               : 23.976 (24000/1001) FPS
Color space                              : YUV
Chroma subsampling                       : 4:2:0
Bit depth                                : 8 bits
Scan type                                : Progressive
Bits/(Pixel*Frame)                       : 0.059
Stream size                              : 905 MiB (74%)
Writing library                          : x264 core 142 r2479 dd79a61
Encoding settings                        : cabac=1 / ref=4 / deblock=1:-1:-1 / analyse=0x3:0x133 / me=umh / subme=10 / psy=1 / psy_rd=1.00:0.15 / mixed_ref=1 / me_range=24 / chroma_me=1 / trellis=2 / 8x8dct=1 / cqm=0 / deadzone=21,11 / fast_pskip=1 / chroma_qp_offset=-3 / threads=12 / lookahead_threads=2 / sliced_threads=0 / nr=0 / decimate=1 / interlaced=0 / bluray_compat=0 / constrained_intra=0 / bframes=8 / b_pyramid=2 / b_adapt=2 / b_bias=0 / direct=3 / weightb=1 / open_gop=0 / weightp=2 / keyint=240 / keyint_min=24 / scenecut=40 / intra_refresh=0 / rc_lookahead=60 / rc=crf / mbtree=1 / crf=20.0 / qcomp=0.60 / qpmin=0 / qpmax=69 / qpstep=4 / vbv_maxrate=62500 / vbv_bufsize=78125 / crf_max=0.0 / nal_hrd=none / filler=0 / ip_ratio=1.40 / aq=1:1.00
Default                                  : Yes
Forced                                   : No
Color range                              : Limited
Color primaries                          : BT.709
Transfer characteristics                 : BT.709
Matrix coefficients                      : BT.709

Audio
ID                                       : 2
Format                                   : FLAC
Format/Info                              : Free Lossless Audio Codec
Codec ID                                 : A_FLAC
Duration                                 : 43 min 7 s
Bit rate mode                            : Variable
Bit rate                                 : 1 044 kb/s
Channel(s)                               : 6 channels
Channel positions                        : Front: L C R, Side: L R, LFE
Sampling rate                            : 48.0 kHz
Frame rate                               : 11.719 FPS (4096 SPF)
Bit depth                                : 16 bits
Delay relative to video                  : -83 ms
Stream size                              : 322 MiB (26%)
Writing library                          : libFLAC 1.2.1 (UTC 2007-09-17)
Language                                 : English
Default                                  : Yes
Forced                                   : No

Text
ID                                       : 3
Format                                   : UTF-8
Codec ID                                 : S_TEXT/UTF8
Codec ID/Info                            : UTF-8 Plain Text
Duration                                 : 41 min 35 s
Bit rate                                 : 94 b/s
Count of elements                        : 772
Stream size                              : 28.8 KiB (0%)
Language                                 : English
Default                                  : Yes
Forced                                   : No

Menu
00:00:00.000                             : :Chapter 1
00:08:48.611                             : :Chapter 2
00:15:59.375                             : :Chapter 3
00:23:17.145                             : :Chapter 4
00:29:15.170                             : :Chapter 5
00:35:34.882                             : :Chapter 6
00:42:25.292                             : :Chapter 7
</code></pre></p>
    <p class="toolbar">
        <a href="https://www.reddit.com/r/megalinks/comments/6kh5ka">permalink</a>
    </p>
</div>
<div class="comment" id="t1_djn05iw">
    <p class="userinfo">
        <a
        class="toggle_hide_button"
        href="javascript:void(0)"
        onclick="toggle_collapse(this.parentElement.parentElement)">[-]
        </a>
        <a href="https://www.reddit.com/u/SirChiropractixAlot">SirChiropractixAlot</a>
        <span class="score"> | 2 points</span>
        <span class="timestamp"> | Jul 01 2017 06:56:00</span>
    </p>
    <div class="collapsible">
        <p>Thank you so much for this.</p>
<p>Do you also happen to have Luke Cage S01 in 720p? I've made several requests but no luck so far :/</p>
        <p class="toolbar">
            <a href="https://www.reddit.com/r/megalinks/comments/6kh5ka/_/djn05iw">permalink</a>
        </p>
        <div class="comment" id="t1_djn3dpa">
    <p class="userinfo">
        <a
        class="toggle_hide_button"
        href="javascript:void(0)"
        onclick="toggle_collapse(this.parentElement.parentElement)">[-]
        </a>
        <a href="https://www.reddit.com/u/V2atX">V2atX</a>
        <span class="score"> | 2 points</span>
        <span class="timestamp"> | Jul 01 2017 09:28:25</span>
    </p>
    <div class="collapsible">
        <p>Don't have it.</p>
        <p class="toolbar">
            <a href="https://www.reddit.com/r/megalinks/comments/6kh5ka/_/djn3dpa">permalink</a>
        </p>
        
    </div>
</div>
    </div>
</div>

<div class="comment" id="t1_djrh63v">
    <p class="userinfo">
        <a
        class="toggle_hide_button"
        href="javascript:void(0)"
        onclick="toggle_collapse(this.parentElement.parentElement)">[-]
        </a>
        <a href="https://www.reddit.com/u/cetinkaya">cetinkaya</a>
        <span class="score"> | 2 points</span>
        <span class="timestamp"> | Jul 04 2017 12:12:33</span>
    </p>
    <div class="collapsible">
        <p>thanks for this. can you share agents of shield and netflix shows as this format too?</p>
        <p class="toolbar">
            <a href="https://www.reddit.com/r/megalinks/comments/6kh5ka/_/djrh63v">permalink</a>
        </p>
        <div class="comment" id="t1_djrj3re">
    <p class="userinfo">
        <a
        class="toggle_hide_button"
        href="javascript:void(0)"
        onclick="toggle_collapse(this.parentElement.parentElement)">[-]
        </a>
        <a href="https://www.reddit.com/u/V2atX">V2atX</a>
        <span class="score"> | 1 points</span>
        <span class="timestamp"> | Jul 04 2017 13:16:04</span>
    </p>
    <div class="collapsible">
        <p>If you check my post history, you'll see I already posted Jessica Jones. Not sure if I can post Agents of Shield as well, I'll have to check that when I get home.</p>
<p>I should be able to post Daredevil though, but the episodes are around 2.5GB on average.</p>
<p>Edit: Looks like I can't post Agents of S.H.I.E.L.D. for now.</p>
        <p class="toolbar">
            <a href="https://www.reddit.com/r/megalinks/comments/6kh5ka/_/djrj3re">permalink</a>
        </p>
        
    </div>
</div>
    </div>
</div>
</body>

<script>
function toggle_collapse(comment_div)
{
    var button = comment_div.getElementsByClassName("toggle_hide_button")[0];
    var collapsible = comment_div.getElementsByClassName("collapsible")[0];
    if (collapsible.classList.contains("hidden"))
    {
        collapsible.classList.remove("hidden");
        button.innerText = "[-]";
    }
    else
    {
        collapsible.classList.add("hidden");
        button.innerText = "[+]";
    }
}
</script>
</html>
